# xmcd CD database file
#
# Track frame offsets:
#	150
#	18715
#	39147
#	55335
#	69678
#	85211
#	100999
#	114192
#	131740
#	147853
#	165696
#	182614
#	204492
#	218465
#	233858
#	247986
#	264104
#	283912
#	301610
#	317550
#
# Disc length: 4434 seconds
#
# Revision: 2
# Processed by: cddbd v1.5.2PL0 Copyright (c) Steve Scherf et al.
# Submitted via: CDex 1.70beta2
#
DISCID=0f115014
DTITLE=Matti Esko - Kaikkien aikojen parhaat - 40 toivotuinta CD1
DYEAR=2007
DGENRE=Finnish
TTITLE0=Rekkamies
TTITLE1=Huomenta Suomi (City of New Orleans)
TTITLE2=P‰iv‰unta
TTITLE3=L‰mmin ja niin tuttu
TTITLE4=S‰ kuulut p‰iv‰‰n jokaiseen
TTITLE5=S‰ olet mulle niin kuin taivas
TTITLE6=Tien Kuningas (King of the Road)
TTITLE7=N‰in Suomi pysyy pyˆrill‰‰n
TTITLE8=Risteysasema
TTITLE9=Maria (Beautiful Maria of My Soul)
TTITLE10=Reissumies
TTITLE11=Kotiin ette voi vied‰
TTITLE12=Vanhat laulut nuo (Sailor)
TTITLE13=Valtion rautateill‰ matkustan
TTITLE14=Is‰ni maa
TTITLE15=Ei itkut auta en‰‰ (the Days of Pearly Spencer)
TTITLE16=Tule paikkaan suojaisaan
TTITLE17=Sumuinen aamu
TTITLE18=L‰mmin, hell‰, pehmoinen
TTITLE19=H‰m‰r‰ maa
EXTD=M'oon rekkamies.... :-]\n\n\nPs. Sumiainen! YEAR: 2007
EXTT0=
EXTT1=
EXTT2=
EXTT3=
EXTT4=
EXTT5=
EXTT6=
EXTT7=
EXTT8=
EXTT9=
EXTT10=
EXTT11=
EXTT12=
EXTT13=
EXTT14=
EXTT15=
EXTT16=
EXTT17=
EXTT18=
EXTT19=
PLAYORDER=
